<svg
    xmlns="http://www.w3.org/2000/svg"
    version="1.1"
    width="32px"
    height="32px"
    style="
      shape-rendering: geometricPrecision;
      text-rendering: geometricPrecision;
      image-rendering: optimizeQuality;
      fill-rule: evenodd;
      clip-rule: evenodd;
    "
    xmlns:xlink="http://www.w3.org/1999/xlink"
    viewBox="0 0 32 32"
  >
    <g>
      <path
        style="opacity: 1"
        fill="#4f7cd1"
        d="M6.969 -0.031h17.688q3.061 0.733 3.781 3.813 0.253 2.54 -1.656 4.219a3.962 3.962 0 0 1 -0.813 0.469q0.016 -1.407 -0.031 -2.813 -0.212 -0.493 -0.719 -0.656a66.063 66.063 0 0 0 -4.063 0q-3.54 0.629 -4.875 3.969 -7.694 -0.401 -12.781 5.313 -3.055 3.712 -3.531 8.5v-15.813Q0.832 1.902 5.719 0.25a23.063 23.063 0 0 1 1.25 -0.281"
      />
    </g>
    <g>
      <path
        style="opacity: 0.998"
        fill="#3764b9"
        d="M24.656 -0.031h0.313q5.067 0.863 6.719 5.75a23.063 23.063 0 0 1 0.281 1.25v1.813q-0.705 4.753 -5.125 6.656a6.656 6.656 0 0 1 -1.063 0.281q0.028 0.21 -0.063 0.375 0.059 -0.8 -0.688 -1.094 -2.031 -0.047 -4.063 -0.031 -0.016 -2.156 0.031 -4.313 0.203 -0.453 0.656 -0.656a59.375 59.375 0 0 0 3.75 -0.125q0.746 -0.502 0.563 -1.406a3.962 3.962 0 0 0 0.813 -0.469q1.909 -1.679 1.656 -4.219 -0.72 -3.079 -3.781 -3.813"
      />
    </g>
    <g>
      <path
        style="opacity: 1"
        fill="#fefefe"
        d="M25.969 8.469q0.184 0.904 -0.563 1.406a59.375 59.375 0 0 1 -3.75 0.125q-0.453 0.203 -0.656 0.656a148.75 148.75 0 0 0 -0.031 4.313q2.031 -0.016 4.063 0.031 0.746 0.293 0.688 1.094a137.688 137.688 0 0 0 -0.594 3.125q-0.172 0.547 -0.719 0.719 -1.718 0.047 -3.438 0.031v12h-5v-12q-1.657 0.016 -3.313 -0.031 -0.493 -0.212 -0.656 -0.719 -0.063 -1.781 0 -3.563 0.203 -0.453 0.656 -0.656 1.656 -0.047 3.313 -0.031 -0.016 -2.406 0.031 -4.813a8.938 8.938 0 0 1 0.281 -1.188q1.335 -3.339 4.875 -3.969 2.031 -0.063 4.063 0 0.507 0.163 0.719 0.656 0.047 1.406 0.031 2.813"
      />
    </g>
    <g>
      <path
        style="opacity: 1"
        fill="#1e4ba0"
        d="M31.969 8.781v16.188q-0.863 5.067 -5.75 6.719a23.125 23.125 0 0 1 -1.25 0.281h-1.813q-1.11 -0.176 -2.188 -0.563v-11.438q1.719 0.016 3.438 -0.031 0.547 -0.172 0.719 -0.719a137.688 137.688 0 0 1 0.594 -3.125q0.09 -0.165 0.063 -0.375a6.656 6.656 0 0 0 1.063 -0.281q4.42 -1.903 5.125 -6.656"
      />
    </g>
    <g>
      <path
        style="opacity: 0.999"
        fill="#3764b9"
        d="M16.281 8.969a8.938 8.938 0 0 0 -0.281 1.188q-0.047 2.406 -0.031 4.813 -1.657 -0.016 -3.313 0.031 -0.453 0.203 -0.656 0.656 -0.063 1.781 0 3.563 0.163 0.507 0.656 0.719 1.656 0.047 3.313 0.031v12h-9Q1.902 31.106 0.25 26.219a23.063 23.063 0 0 1 -0.281 -1.25v-2.188q0.476 -4.788 3.531 -8.5 5.087 -5.713 12.781 -5.313"
      />
    </g>
    <g>
      <path style="opacity: 1" fill="#3663b8" d="M20.969 31.406q1.077 0.386 2.188 0.563h-2.188z" />
    </g>
  </svg>