  <svg width="34" height="32" viewBox="0 0 34 32" fill="none" xmlns="http://www.w3.org/2000/svg">
    <path
      d="M17 0C26.3925 0 34 7.3411 34 16.4047C34 23.6638 29.1338 29.795 22.3763 31.9687C21.5263 32.1122 21.2075 31.6201 21.2075 31.1894C21.2075 30.7998 21.2287 29.508 21.2287 28.1341C25.5 28.8928 26.605 27.1293 26.945 26.2065C27.1363 25.7349 27.965 24.279 28.6875 23.8893C29.2825 23.5818 30.1325 22.823 28.7087 22.8025C27.37 22.782 26.4138 23.9919 26.095 24.484C24.565 26.9652 22.1212 26.268 21.1437 25.8374C20.995 24.7711 20.5487 24.0534 20.06 23.6433C23.8425 23.2332 27.795 21.8183 27.795 15.5435C27.795 13.7594 27.1363 12.283 26.0525 11.1347C26.2225 10.7246 26.8175 9.04309 25.8825 6.78745C25.8825 6.78745 24.4587 6.35682 21.2075 8.46893C19.8475 8.09982 18.4025 7.91527 16.9575 7.91527C15.5125 7.91527 14.0675 8.09982 12.7075 8.46893C9.45625 6.33632 8.0325 6.78745 8.0325 6.78745C7.0975 9.04309 7.6925 10.7246 7.8625 11.1347C6.77875 12.283 6.12 13.7389 6.12 15.5435C6.12 21.8388 10.0938 23.2332 13.8762 23.6433C13.26 24.1559 12.7288 25.1402 12.7288 26.6781C12.7288 28.8723 12.75 30.6358 12.75 31.1894C12.75 31.6201 12.4312 32.1327 11.5812 31.9687C8.20592 30.8701 5.27282 28.7773 3.19515 25.9851C1.11748 23.1929 -4.57764e-05 19.8421 0 16.4047C0 7.3411 7.6075 0 17 0Z"
      fill="#5C5BDB"
    ></path>
  </svg>