<svg
    xmlns="http://www.w3.org/2000/svg"
    width="32"
    height="32"
    style="
      shape-rendering: geometricPrecision;
      text-rendering: geometricPrecision;
      image-rendering: optimizeQuality;
      fill-rule: evenodd;
      clip-rule: evenodd;
    "
    viewBox="0 0 32 32"
  >
    <path
      style="opacity: 0.997"
      fill="#febc00"
      d="M31.969 6.594v3.563l-7.25 5.438a356 356 0 0 0-.063-9.438 65 65 0 0 1 2.25-1.719q2.094-1.109 4 .313.798.779 1.063 1.844"
    />
    <path
      style="opacity: 0.996"
      fill="#e41c19"
      d="M7.281 6.156a352 352 0 0 0-.063 9.375 447 447 0 0 1-7.25-5.375V6.593q.974-3.082 4.188-2.531a4 4 0 0 1 .875.375 65 65 0 0 1 2.25 1.719"
    />
    <path
      style="opacity: 0.995"
      fill="#fe4130"
      d="M7.281 6.156q4.365 3.238 8.719 6.5a1265 1265 0 0 1 8.656-6.5 356 356 0 0 1 .063 9.438l-.063.125a1044 1044 0 0 1-8.688 6.438 1044 1044 0 0 1-8.688-6.438.36.36 0 0 0-.063-.188 352 352 0 0 1 .063-9.375"
    />
    <path
      style="opacity: 0.995"
      fill="#0184f6"
      d="M-.031 10.156a447 447 0 0 0 7.25 5.375q.057.084.063.188v12.313q-2.846.041-5.688-.094-1.236-.377-1.625-1.594z"
    />
    <path
      style="opacity: 1"
      fill="#00a94a"
      d="M31.969 10.156v16.188q-.389 1.217-1.625 1.594a92 92 0 0 1-5.688.094V15.719l.063-.125z"
    />
  </svg>