 <svg
    xmlns="http://www.w3.org/2000/svg"
    version="1.1"
    width="32px"
    height="32px"
    style="
      shape-rendering: geometricPrecision;
      text-rendering: geometricPrecision;
      image-rendering: optimizeQuality;
      fill-rule: evenodd;
      clip-rule: evenodd;
    "
    xmlns:xlink="http://www.w3.org/1999/xlink"
    viewBox="0 0 32 32"
  >
    <g>
      <path
        style="opacity: 1"
        fill="#32b3fe"
        d="M6.969 -0.031h17.688q3.892 1.033 3.781 5.063 -0.414 2.657 -2.906 3.656a11.625 11.625 0 0 0 -1.188 0.344q-0.743 -0.898 -1.875 -0.531a16.688 16.688 0 0 0 -1.25 0.531 150.25 150.25 0 0 0 -7.5 -0.031Q5.242 10.024 1.375 17.594q-1.102 2.466 -1.406 5.125v-15.75Q0.832 1.902 5.719 0.25a23.063 23.063 0 0 1 1.25 -0.281"
      />
    </g>
    <g>
      <path
        style="opacity: 0.997"
        fill="#199bdf"
        d="M24.656 -0.031h0.313q5.067 0.863 6.719 5.75a23.063 23.063 0 0 1 0.281 1.25v1.5q-0.541 4.972 -5.125 6.969 -1.54 0.586 -3.188 0.531l0.938 -6.125q-0.012 -0.443 -0.25 -0.813a11.625 11.625 0 0 1 1.188 -0.344q2.492 -1 2.906 -3.656 0.111 -4.03 -3.781 -5.063"
      />
    </g>
    <g>
      <path
        style="opacity: 1"
        fill="#fefefe"
        d="M24.344 9.031q0.238 0.369 0.25 0.813l-0.938 6.125a3029.625 3029.625 0 0 1 -1.344 8.625q-0.494 1.49 -2.031 1.094a7421.188 7421.188 0 0 1 -4.188 -3.031 145.938 145.938 0 0 0 -2.781 -2.063q-0.62 -0.865 0.156 -1.594l6.031 -5.656q0.062 -0.468 -0.406 -0.344l-8 5.25q-1.203 0.702 -2.563 0.375a276 276 0 0 1 -3.938 -1.063q-0.833 -0.785 -0.063 -1.625a2775.625 2775.625 0 0 1 16.688 -6.906 16.688 16.688 0 0 1 1.25 -0.531q1.132 -0.367 1.875 0.531"
      />
    </g>
    <g>
      <path
        style="opacity: 1"
        fill="#0082be"
        d="M31.969 8.469v16.5q-0.863 5.067 -5.75 6.719a23.125 23.125 0 0 1 -1.25 0.281h-1.688q-5.496 -0.792 -7.094 -6.125 -0.366 -1.598 -0.094 -3.188 2.091 1.515 4.188 3.031 1.537 0.396 2.031 -1.094a3029.625 3029.625 0 0 0 1.344 -8.625q1.647 0.055 3.188 -0.531 4.584 -1.996 5.125 -6.969"
      />
    </g>
    <g>
      <path
        style="opacity: 0.999"
        fill="#199bdf"
        d="M21.219 9.031A2775.625 2775.625 0 0 0 4.531 15.938q-0.77 0.84 0.063 1.625a276 276 0 0 0 3.938 1.063q1.359 0.327 2.563 -0.375l8 -5.25q0.469 -0.125 0.406 0.344L13.469 19q-0.777 0.729 -0.156 1.594a145.938 145.938 0 0 1 2.781 2.063q-0.273 1.59 0.094 3.188 1.598 5.333 7.094 6.125h-16.313Q1.902 31.106 0.25 26.219a23.063 23.063 0 0 1 -0.281 -1.25v-2.25q0.304 -2.659 1.406 -5.125Q5.242 10.024 13.719 9a150.25 150.25 0 0 1 7.5 0.031"
      />
    </g>
  </svg>